<?xml version="1.0" standalone="no"?><!DOCTYPE svg PUBLIC "-//W3C//DTD SVG 1.1//EN" "http://www.w3.org/Graphics/SVG/1.1/DTD/svg11.dtd"><svg class="icon" width="200px" height="200.00px" viewBox="0 0 1024 1024" version="1.1" xmlns="http://www.w3.org/2000/svg"><path d="M650.4608074 998.10104192c2.18908478 5.11986008 5.36012511 9.92168638 9.53865452 14.10021695 12.67371254 12.67371254 31.03022653 16.1871598 46.86105063 10.56239426 3.79433723-1.34641494 7.43081847-3.21862852 10.82123178-5.6224437 2.06605079-1.45436089 4.03460226-3.09327273 5.88128121-4.93995056 1.84435713-1.84551747 208.37167274-209.30487866 208.37167276-209.30487865 17.5463432-17.55446795 17.5533076-46.01025603 0-63.56356249-17.5521461-17.5521461-46.0114164-17.5521461-63.56356251 0l-131.63993772 131.63993771 0-816.72962764c0-24.82046719-20.12658456-44.94705175-44.94705174-44.938927-24.82627009 0-44.94589138 20.1184598-44.9458914 44.93892699L646.8382538 980.41773595l0.02205354 0C646.86030734 986.44294321 648.05234965 992.46815162 650.4608074 998.10104192L650.4608074 998.10104192zM650.4608074 998.10104192" fill="#515151" /><path d="M92.06297986 295.32688567c17.5533076 17.5533076 46.01257673 17.5533076 63.56472398 0l131.64690213-131.63297331-0.0069644 816.72382359c0 24.82627009 20.12658456 44.94589139 44.95285578 44.94589139 24.82046719 0 44.94008735-20.1196213 44.94008738-44.94589139l0-908.49014181 1e-8-17.68330599-0.01392883 0c-0.00580405-6.01824398-1.19900556-12.04925531-3.60746441-17.68330597-2.18908478-5.11869861-5.35896476-9.91472312-9.53981605-14.0944129-12.67487402-12.67487402-31.02790469-16.1941242-46.8610506-10.56703796-3.79549758 1.34409421-7.42965813 3.22443257-10.8212318 5.62012302-2.06489043 1.46132528-4.03460226 3.10139747-5.88011972 4.94807529-1.84435713 1.84551747-208.37167275 209.29675276-208.37167275 209.29675275C74.51895851 249.31779001 74.51895851 277.77357806 92.06297986 295.32688567L92.06297986 295.32688567zM92.06297986 295.32688567" fill="#1296db" /></svg>