<?xml version="1.0" standalone="no"?><!DOCTYPE svg PUBLIC "-//W3C//DTD SVG 1.1//EN" "http://www.w3.org/Graphics/SVG/1.1/DTD/svg11.dtd"><svg class="icon" width="200px" height="200.00px" viewBox="0 0 1024 1024" version="1.1" xmlns="http://www.w3.org/2000/svg"><path d="M389.929292 88.142479c-1.929955-4.513804-4.725628-8.747221-8.40953-12.431124-11.17348-11.17348-27.357068-14.271028-41.313941-9.312086-3.345188 1.187035-6.551206 2.837628-9.540284 4.956895-1.821485 1.282203-3.557012 2.727111-5.185093 4.355191-1.626034 1.627057-183.705975 184.528714-183.705975 184.528714-15.46932 15.476483-15.47546 40.563858 0 56.039317 15.474436 15.474436 40.564881 15.474436 56.039317 0l116.057249-116.057249 0 720.05043c0 21.88238 17.744129 39.626509 39.626509 39.619346 21.887496 0 39.625486-17.736966 39.625486-39.619346L393.123031 103.732549l-0.019443 0C393.103588 98.420567 392.052652 93.108584 389.929292 88.142479L389.929292 88.142479zM389.929292 88.142479" fill="#515151" /><path d="M882.227578 707.726753c-15.47546-15.47546-40.565904-15.47546-56.040341 0l-116.063389 116.051109 0.00614-720.045313c0-21.887496-17.744129-39.625486-39.631626-39.625486-21.88238 0-39.620369 17.73799-39.620369 39.625486l0 800.948925 0 15.59007 0.01228 0c0.005117 5.305843 1.057075 10.622942 3.180436 15.59007 1.929955 4.51278 4.724605 8.741082 8.410554 12.426007 11.174504 11.174504 27.355021 14.277168 41.313941 9.31618 3.346211-1.184989 6.550183-2.842745 9.540284-4.954849 1.820462-1.288343 3.557012-2.734274 5.184069-4.362354 1.626034-1.627057 183.705975-184.52155 183.705975-184.52155C897.694851 748.289588 897.694851 723.202213 882.227578 707.726753L882.227578 707.726753zM882.227578 707.726753" fill="#1296db" /></svg>